<?xml version="1.0" encoding="utf-8"?>
<!-- Generator: Adobe Illustrator 22.0.0, SVG Export Plug-In . SVG Version: 6.00 Build 0)  -->
<svg version="1.1" id="Icon_Set" xmlns="http://www.w3.org/2000/svg" xmlns:xlink="http://www.w3.org/1999/xlink" x="0px" y="0px"
	 viewBox="0 0 64 64" style="enable-background:new 0 0 64 64;" xml:space="preserve">
<style type="text/css">
	.st0{fill:#40C4FF;}
	.st1{fill:#263238;}
	.st2{fill:#FFD740;}
	.st3{fill:#FF5252;}
	.st4{fill:#4DB6AC;}
	.st5{fill:#FFFFFF;}
	.st6{fill:#4FC3F7;}
	.st7{fill:#37474F;}
</style>
<g>
	<g>
		<path class="st1" d="M16.502,54.5c-3.033,0-5.5-2.468-5.5-5.5s2.467-5.5,5.5-5.5s5.5,2.468,5.5,5.5S19.535,54.5,16.502,54.5z
			 M16.502,44.5c-2.481,0-4.5,2.019-4.5,4.5s2.019,4.5,4.5,4.5s4.5-2.019,4.5-4.5S18.984,44.5,16.502,44.5z"/>
	</g>
	<g>
		<path class="st1" d="M8.5,62.5C8.224,62.5,8,62.276,8,62v-3.39c0-1.175,0.691-2.247,1.76-2.731l3.733-1.696l0-0.857
			c0-0.275,0.224-0.5,0.5-0.5h0c0.276,0,0.5,0.224,0.5,0.5l0.001,1.18c0,0.196-0.115,0.374-0.293,0.455l-4.027,1.829
			C9.461,57.112,9,57.827,9,58.61V62C9,62.276,8.777,62.5,8.5,62.5z"/>
	</g>
	<g>
		<path class="st1" d="M24.5,62.5c-0.276,0-0.5-0.224-0.5-0.5v-3.392c0-0.781-0.46-1.496-1.172-1.82l-4.042-1.838
			c-0.178-0.081-0.293-0.259-0.293-0.455l0-1.159c0-0.276,0.224-0.5,0.5-0.5c0,0,0,0,0,0c0.276,0,0.5,0.224,0.5,0.5l0,0.837
			l3.749,1.705C24.31,56.364,25,57.436,25,58.608V62C25,62.276,24.776,62.5,24.5,62.5z"/>
	</g>
	<g>
		<path class="st1" d="M32.502,54.5c-3.033,0-5.5-2.468-5.5-5.5s2.467-5.5,5.5-5.5s5.5,2.468,5.5,5.5S35.535,54.5,32.502,54.5z
			 M32.502,44.5c-2.481,0-4.5,2.019-4.5,4.5s2.019,4.5,4.5,4.5c2.481,0,4.5-2.019,4.5-4.5S34.983,44.5,32.502,44.5z"/>
	</g>
	<g>
		<path class="st1" d="M24.5,62.5c-0.276,0-0.5-0.224-0.5-0.5v-3.39c0-1.174,0.691-2.246,1.76-2.731l3.734-1.696l0-0.857
			c0-0.275,0.224-0.5,0.5-0.5h0c0.276,0,0.5,0.224,0.5,0.5l0.001,1.18c0,0.196-0.115,0.374-0.293,0.455l-4.028,1.829
			C25.46,57.113,25,57.827,25,58.61V62C25,62.276,24.776,62.5,24.5,62.5z"/>
	</g>
	<g>
		<path class="st1" d="M40.5,62.5c-0.276,0-0.5-0.224-0.5-0.5v-3.392c0-0.781-0.46-1.496-1.172-1.82l-4.042-1.838
			c-0.179-0.081-0.293-0.259-0.293-0.455v-1.159c0-0.276,0.224-0.5,0.5-0.5l0,0c0.276,0,0.5,0.224,0.5,0.5l0.001,0.837l3.748,1.705
			C40.311,56.364,41,57.437,41,58.608V62C41,62.276,40.776,62.5,40.5,62.5z"/>
	</g>
	<g>
		<path class="st1" d="M48.502,54.5c-3.032,0-5.5-2.468-5.5-5.5s2.468-5.5,5.5-5.5s5.5,2.468,5.5,5.5S51.534,54.5,48.502,54.5z
			 M48.502,44.5c-2.481,0-4.5,2.019-4.5,4.5s2.019,4.5,4.5,4.5s4.5-2.019,4.5-4.5S50.983,44.5,48.502,44.5z"/>
	</g>
	<g>
		<path class="st1" d="M40.5,62.5c-0.276,0-0.5-0.224-0.5-0.5v-3.39c0-1.174,0.69-2.246,1.759-2.731l3.735-1.696l-0.001-0.857
			c0-0.275,0.224-0.5,0.5-0.5l0,0c0.276,0,0.5,0.224,0.5,0.5l0.001,1.18c0,0.196-0.114,0.374-0.293,0.455l-4.028,1.829
			C41.46,57.112,41,57.827,41,58.61V62C41,62.276,40.776,62.5,40.5,62.5z"/>
	</g>
	<g>
		<path class="st1" d="M56.5,62.5c-0.276,0-0.5-0.224-0.5-0.5v-3.392c0-0.781-0.46-1.496-1.173-1.82l-4.041-1.838
			c-0.179-0.081-0.293-0.259-0.293-0.455v-1.159c0-0.276,0.224-0.5,0.5-0.5l0,0c0.276,0,0.5,0.224,0.5,0.5l0.001,0.837l3.747,1.705
			C56.31,56.364,57,57.436,57,58.608V62C57,62.276,56.776,62.5,56.5,62.5z"/>
	</g>
	<g>
		<path class="st3" d="M59.5,2h-15C43.119,2,42,3.119,42,4.5V12c0,1.381,1.119,2.5,2.5,2.5H47v2.865c0,0.848,0.989,1.311,1.64,0.768
			L53,14.5h6.5c1.381,0,2.5-1.119,2.5-2.5V4.5C62,3.119,60.881,2,59.5,2z"/>
		<path class="st1" d="M48.004,18.867c-0.216,0-0.434-0.048-0.641-0.144c-0.532-0.25-0.863-0.771-0.863-1.358V15h-2
			c-1.654,0-3-1.346-3-3V4.5c0-1.654,1.346-3,3-3h15c1.654,0,3,1.346,3,3V12c0,1.654-1.346,3-3,3h-6.319l-4.22,3.517
			C48.684,18.748,48.346,18.867,48.004,18.867z M44.5,2.5c-1.103,0-2,0.897-2,2V12c0,1.103,0.897,2,2,2H47
			c0.276,0,0.5,0.224,0.5,0.5v2.865c0,0.295,0.221,0.421,0.288,0.452c0.067,0.032,0.306,0.119,0.532-0.068l4.359-3.633
			C52.77,14.041,52.883,14,53,14h6.5c1.103,0,2-0.897,2-2V4.5c0-1.103-0.897-2-2-2H44.5z"/>
	</g>
	<g>
		<path class="st1" d="M46.902,9.75c-0.827,0-1.5-0.673-1.5-1.5s0.673-1.5,1.5-1.5s1.5,0.673,1.5,1.5S47.729,9.75,46.902,9.75z
			 M46.902,7.75c-0.275,0-0.5,0.225-0.5,0.5s0.225,0.5,0.5,0.5s0.5-0.225,0.5-0.5S47.178,7.75,46.902,7.75z"/>
	</g>
	<g>
		<path class="st1" d="M51.902,9.75c-0.827,0-1.5-0.673-1.5-1.5s0.673-1.5,1.5-1.5s1.5,0.673,1.5,1.5S52.729,9.75,51.902,9.75z
			 M51.902,7.75c-0.275,0-0.5,0.225-0.5,0.5s0.225,0.5,0.5,0.5s0.5-0.225,0.5-0.5S52.178,7.75,51.902,7.75z"/>
	</g>
	<g>
		<path class="st1" d="M56.902,9.75c-0.827,0-1.5-0.673-1.5-1.5s0.673-1.5,1.5-1.5s1.5,0.673,1.5,1.5S57.729,9.75,56.902,9.75z
			 M56.902,7.75c-0.275,0-0.5,0.225-0.5,0.5s0.225,0.5,0.5,0.5s0.5-0.225,0.5-0.5S57.178,7.75,56.902,7.75z"/>
	</g>
	<g>
		<path class="st1" d="M32.505,15.5c-3.584,0-6.5-2.916-6.5-6.5s2.916-6.5,6.5-6.5s6.5,2.916,6.5,6.5S36.089,15.5,32.505,15.5z
			 M32.505,3.5c-3.033,0-5.5,2.468-5.5,5.5s2.467,5.5,5.5,5.5c3.032,0,5.5-2.468,5.5-5.5S35.537,3.5,32.505,3.5z"/>
	</g>
	<g>
		<path class="st2" d="M36.665,5.531l0.447-0.372C36.012,3.84,34.357,3,32.505,3c-3.314,0-6,2.686-6,6h0.566
			C30.577,9,33.971,7.772,36.665,5.531z"/>
		<path class="st1" d="M27.071,9.5h-0.566c-0.276,0-0.5-0.224-0.5-0.5c0-3.584,2.916-6.5,6.5-6.5c1.932,0,3.751,0.853,4.991,2.338
			c0.085,0.102,0.126,0.233,0.114,0.365c-0.012,0.133-0.076,0.255-0.179,0.34l-0.447,0.372C34.207,8.227,30.686,9.5,27.071,9.5z
			 M27.027,8.5h0.044c3.381,0,6.675-1.191,9.273-3.354c0.001,0,0.001,0,0.001,0l0.045-0.037C35.361,4.081,33.972,3.5,32.505,3.5
			C29.641,3.5,27.281,5.7,27.027,8.5z"/>
	</g>
	<g>
		<path class="st1" d="M42.51,32c-0.276,0-0.5-0.224-0.5-0.5v-8.908c0-1.717-0.954-3.26-2.489-4.026l-4.23-2.113
			c-0.247-0.123-0.347-0.424-0.224-0.671c0.124-0.246,0.424-0.347,0.671-0.224l4.23,2.113c1.876,0.938,3.042,2.822,3.042,4.921V31.5
			C43.01,31.776,42.786,32,42.51,32z"/>
	</g>
	<g>
		<path class="st1" d="M38.505,32c-0.276,0-0.5-0.224-0.5-0.5V25c0-0.276,0.224-0.5,0.5-0.5s0.5,0.224,0.5,0.5v6.5
			C39.005,31.776,38.781,32,38.505,32z"/>
	</g>
	<g>
		<path class="st1" d="M32.51,20.968L32.51,20.968c-0.167,0-0.323-0.083-0.416-0.222l-2.996-4.473
			c-0.055-0.082-0.084-0.18-0.084-0.278l0.001-1.799c0-0.179,0.095-0.344,0.25-0.433c0.155-0.09,0.346-0.09,0.5,0
			c1.677,0.967,3.827,0.963,5.498-0.011c0.155-0.092,0.346-0.09,0.501-0.002c0.155,0.09,0.251,0.255,0.251,0.434l-0.001,1.82
			c0,0.1-0.029,0.196-0.085,0.279l-3.004,4.463C32.832,20.885,32.676,20.968,32.51,20.968z M30.014,15.843l2.497,3.729l2.503-3.719
			l0.001-0.86c-1.581,0.664-3.417,0.668-5,0.008L30.014,15.843z"/>
	</g>
	<g>
		<path class="st1" d="M32.51,24.968c-0.276,0-0.5-0.224-0.5-0.5v-4c0-0.276,0.224-0.5,0.5-0.5s0.5,0.224,0.5,0.5v4
			C33.01,24.744,32.786,24.968,32.51,24.968z"/>
	</g>
	<g>
		<path class="st1" d="M11,4.934H7c-0.276,0-0.5-0.224-0.5-0.5s0.224-0.5,0.5-0.5h4c0.276,0,0.5,0.224,0.5,0.5
			S11.276,4.934,11,4.934z"/>
	</g>
	<g>
		<path class="st1" d="M9,6.934c-0.276,0-0.5-0.224-0.5-0.5v-4c0-0.276,0.224-0.5,0.5-0.5s0.5,0.224,0.5,0.5v4
			C9.5,6.71,9.276,6.934,9,6.934z"/>
	</g>
	<g>
		<path class="st1" d="M6,10.434H2c-0.276,0-0.5-0.224-0.5-0.5s0.224-0.5,0.5-0.5h4c0.276,0,0.5,0.224,0.5,0.5
			S6.276,10.434,6,10.434z"/>
	</g>
	<g>
		<path class="st1" d="M4,12.434c-0.276,0-0.5-0.224-0.5-0.5v-4c0-0.276,0.224-0.5,0.5-0.5s0.5,0.224,0.5,0.5v4
			C4.5,12.21,4.276,12.434,4,12.434z"/>
	</g>
	<g>
		<path class="st1" d="M21.096,29h-10c-0.276,0-0.5-0.224-0.5-0.5s0.224-0.5,0.5-0.5h10c0.276,0,0.5,0.224,0.5,0.5
			S21.373,29,21.096,29z"/>
	</g>
	<g>
		<path class="st1" d="M8.904,29h-1c-0.276,0-0.5-0.224-0.5-0.5s0.224-0.5,0.5-0.5h1c0.276,0,0.5,0.224,0.5,0.5S9.18,29,8.904,29z"
			/>
	</g>
	<g>
		<path class="st1" d="M57.904,29h-10c-0.276,0-0.5-0.224-0.5-0.5s0.224-0.5,0.5-0.5h10c0.276,0,0.5,0.224,0.5,0.5
			S58.181,29,57.904,29z"/>
	</g>
	<g>
		<path class="st1" d="M61.096,29h-1c-0.276,0-0.5-0.224-0.5-0.5s0.224-0.5,0.5-0.5h1c0.276,0,0.5,0.224,0.5,0.5
			S61.372,29,61.096,29z"/>
	</g>
	<g>
		<path class="st1" d="M14.5,42.5c-0.276,0-0.5-0.224-0.5-0.5v-3.5c0-0.276,0.224-0.5,0.5-0.5s0.5,0.224,0.5,0.5V42
			C15,42.276,14.776,42.5,14.5,42.5z"/>
	</g>
	<g>
		<path class="st1" d="M50.5,42.5c-0.276,0-0.5-0.224-0.5-0.5v-3.5c0-0.276,0.224-0.5,0.5-0.5s0.5,0.224,0.5,0.5V42
			C51,42.276,50.776,42.5,50.5,42.5z"/>
	</g>
	<g>
		<path class="st1" d="M26.505,32c-0.276,0-0.5-0.224-0.5-0.5l-0.002-9.451l-4.117-0.823c-1.691-0.338-3.113-1.555-3.71-3.174
			l-3.016-8.188c-0.095-0.259,0.037-0.547,0.296-0.642l3.753-1.383c0.125-0.048,0.261-0.041,0.382,0.015
			c0.121,0.056,0.214,0.157,0.26,0.281l2.92,7.925c0.06,0.162,0.202,0.283,0.371,0.317l1.751,0.351
			c1.012,0.2,2.072,0.048,2.986-0.436l1.4-0.74c0.245-0.129,0.547-0.035,0.676,0.209c0.129,0.244,0.036,0.547-0.208,0.676l-1.4,0.74
			c-1.116,0.591-2.413,0.781-3.65,0.531l-1.751-0.351c-0.508-0.102-0.935-0.467-1.113-0.952L19.085,8.95l-2.814,1.037l2.843,7.719
			c0.478,1.296,1.615,2.269,2.968,2.539l4.519,0.903c0.233,0.047,0.402,0.252,0.402,0.49l0.002,9.861
			C27.005,31.776,26.781,32,26.505,32z"/>
	</g>
	<g>
		<rect x="12.5" y="33.5" class="st4" width="40" height="3"/>
		<path class="st1" d="M52.5,37h-40c-0.276,0-0.5-0.224-0.5-0.5v-3c0-0.276,0.224-0.5,0.5-0.5h40c0.276,0,0.5,0.224,0.5,0.5v3
			C53,36.776,52.776,37,52.5,37z M13,36h39v-2H13V36z"/>
	</g>
	<g>
		<path class="st1" d="M14.938,8.312c-0.204,0-0.395-0.125-0.469-0.327c-0.231-0.626-0.204-1.306,0.077-1.911
			c0.28-0.606,0.779-1.067,1.406-1.298c0.626-0.232,1.305-0.204,1.912,0.076c0.606,0.28,1.067,0.779,1.298,1.406
			c0.095,0.26-0.038,0.547-0.297,0.643c-0.257,0.093-0.546-0.038-0.642-0.297c-0.138-0.377-0.415-0.676-0.779-0.845
			c-0.364-0.167-0.771-0.184-1.147-0.046c-0.376,0.139-0.676,0.416-0.844,0.779s-0.185,0.771-0.046,1.146
			c0.095,0.259-0.037,0.547-0.296,0.642C15.053,8.303,14.995,8.312,14.938,8.312z"/>
	</g>
</g>
</svg>
