<?xml version="1.0" encoding="iso-8859-1"?>
<!-- Uploaded to: SVG Repo, www.svgrepo.com, Generator: SVG Repo Mixer Tools -->
<svg height="800px" width="800px" version="1.1" id="Layer_1" xmlns="http://www.w3.org/2000/svg" xmlns:xlink="http://www.w3.org/1999/xlink" 
	 viewBox="0 0 512 512" xml:space="preserve">
<g>
	<path style="fill:#FEE187;" d="M117.04,447.091c2.954-23.614,23.607-41.32,48.2-39.351c24.593,3.933,217.402,43.283,214.454,66.892
		c-2.954,23.607-199.695,23.607-223.304,20.659C132.783,492.337,115.077,471.684,117.04,447.091z"/>
	<path style="fill:#FEE187;" d="M128.969,256.77c-0.988-13.813,10.888-24.657,24.714-24.593
		c13.646,0.063,24.471,11.62,24.471,25.266v75.928c34.965-10.231,83.557-22.299,87.551-13.649
		c3.186,8.286-50.234,44.082-91.451,69.597c-19.789,12.25-45.333-1.995-45.324-25.269L128.969,256.77z"/>
</g>
<g>
	<path style="fill:#FFC61B;" d="M191.458,109.27c-3.939,0-7.877-1.505-10.881-4.514c-4.195-4.204-5.587-10.516-3.584-16.108
		c1.067-2.976,1.602-4.468,34.779-44.757c8.262-10.032,16.081-19.436,22.015-26.474c3.085-3.66,5.682-6.705,7.547-8.838
		c1.497-1.715,2.913-3.337,4.485-4.697c0.35-0.309,0.715-0.604,1.09-0.878c2.046-1.525,4.416-2.596,7.565-2.908
		c0.51-0.052,1.031-0.134,1.525-0.075c0.516,0.023,1.014,0.026,1.525,0.075c3.14,0.31,5.506,1.377,7.547,2.896
		c0.383,0.281,0.755,0.579,1.111,0.895c1.571,1.36,2.983,2.979,4.48,4.693c1.864,2.133,4.462,5.178,7.547,8.838
		c5.934,7.038,13.752,16.44,22.015,26.474c33.177,40.287,33.712,41.781,34.779,44.756c2.003,5.59,0.613,11.9-3.578,16.105
		c-5.994,6.013-15.727,6.027-21.738,0.034c-1.047-1.044-1.914-2.203-2.596-3.434c-4.745-6.523-34.579-42.957-51.094-62.614
		c-16.514,19.656-46.345,56.087-51.093,62.614c-0.682,1.23-1.546,2.387-2.591,3.428C199.315,107.774,195.386,109.27,191.458,109.27z
		 M206.719,95.735c-0.186,1.546-0.606,3.071-1.259,4.514C206.104,98.887,206.536,97.35,206.719,95.735z M305.288,95.792
		c0.188,1.594,0.615,3.109,1.25,4.454C305.892,98.823,305.475,97.318,305.288,95.792z"/>
	<path style="fill:#FFC61B;" d="M410.28,445.869c-0.018-0.228-0.042-0.456-0.069-0.684c-2.453-19.6-13.969-35.856-29.879-44.991
		c11.44-8.452,18.112-21.58,18.108-36.151l-0.038-106.798c0.567-10.244-3.014-20.037-10.12-27.634
		c-7.618-8.143-18.483-12.802-29.842-12.802c-0.065,0-0.129,0-0.194,0c-0.032,0-0.063,0.005-0.094,0.005
		c-0.035,0-0.068-0.005-0.103-0.005h-69.603c-8.489,0-15.37,6.883-15.37,15.37s6.881,15.37,15.37,15.37h69.603
		c0.045,0,0.089-0.006,0.134-0.006s0.089,0.006,0.134,0.006c0.025,0,0.049,0,0.074,0c2.825-0.008,5.635,1.13,7.441,3.06
		c1.376,1.471,2.004,3.174,1.869,5.063c-0.026,0.367-0.038,0.736-0.038,1.104l0.038,107.281c0.003,7.604-5.143,11.294-7.356,12.527
		c-2.209,1.233-8.048,3.666-14.508-0.334c-30.879-19.115-53.446-34.485-67.702-45.234c3.429-5.71,4.118-11.09,1.918-16.811
		c-0.121-0.312-0.252-0.621-0.392-0.928c-3.643-7.887-11.629-11.886-23.741-11.886c-14.763,0-39.525,5.553-62.395,11.694v-55.642
		c0-3.411-0.421-6.725-1.207-9.895h31.239c8.489,0,15.37-6.883,15.37-15.37s-6.881-15.37-15.37-15.37h-69.603
		c-0.025,0-0.049,0.003-0.074,0.003c-0.042,0-0.081-0.003-0.123-0.003c-0.025,0-0.171,0-0.195,0
		c-11.389,0-22.289,4.691-29.905,12.87c-7.064,7.59-10.624,17.356-10.058,27.568l-0.038,106.798
		c-0.005,12.448,4.903,23.998,13.82,32.524c1.366,1.306,2.82,2.513,4.336,3.632c-15.973,9.19-27.493,25.541-29.926,44.984
		c-0.029,0.228-0.052,0.457-0.069,0.684c-2.573,32.241,20.602,60.648,52.767,64.676c8.603,1.074,31.096,1.457,49.277,1.457
		c10.504,0,29.885-0.129,52.348-0.885c18.12,0.607,36.472,0.884,52.65,0.884c22.91,0,41.454-0.544,48.756-1.456
		C389.677,506.518,412.853,478.109,410.28,445.869z M245.674,360.49c3.729-2.713,7.166-5.274,10.326-7.717
		c3.16,2.444,6.599,5.006,10.326,7.717c17.833,12.974,39.522,26.977,54.645,36.482c-16.924,3.411-40.292,8.429-64.974,14.321
		c-24.653-5.887-48.039-10.907-64.971-14.319C206.15,387.466,227.839,373.464,245.674,360.49z M348.548,423.021
		c15.44-0.956,29.007,10.191,31.116,25.636c0.068,0.993,0.085,1.978,0.054,2.953c-6.62-4.238-14.769-7.837-23.222-11.148
		c-10.649-4.172-24.001-8.612-39.874-13.268C331.995,424.955,343.086,423.928,348.548,423.021z M226.155,336.693
		c-14.196,10.231-34.195,23.589-59.991,39.556c-2.349,1.454-4.863,2.192-7.473,2.192c-3.678,0-7.347-1.492-10.066-4.092
		c-1.974-1.889-4.325-5.206-4.324-10.294l0.038-107.281c0-0.367-0.012-0.736-0.038-1.104c-0.135-1.883,0.49-3.58,1.857-5.048
		c1.794-1.926,4.562-3.076,7.456-3.076c4.971,0.023,9.172,4.554,9.172,9.895v75.928c0,4.84,2.279,9.397,6.153,12.301
		c3.873,2.902,8.887,3.806,13.534,2.452C198.926,343.309,213.82,339.426,226.155,336.693z M158.299,480.041
		c-15.692-1.964-27.035-15.713-25.964-31.383c2.118-15.55,15.364-26.634,31.116-25.636c12.046,1.992,58.538,11.268,104.56,22.863
		c45.993,11.589,70.612,20.184,83.69,25.819c-9.424,1.96-24.273,4.181-47.498,6.022c-28.317,2.246-64.926,3.535-100.441,3.535
		C179.237,481.261,163.001,480.628,158.299,480.041z"/>
	<path style="fill:#FFC61B;" d="M282.656,200.671h-53.315c-28.523,0-51.728-23.206-51.728-51.728c0-8.488,6.881-15.37,15.37-15.37
		s15.37,6.883,15.37,15.37c0,11.572,9.414,20.987,20.987,20.987h53.315c11.572,0,20.987-9.414,20.987-20.987
		c0-8.488,6.881-15.37,15.37-15.37c8.489,0,15.37,6.883,15.37,15.37C334.385,177.467,311.179,200.671,282.656,200.671z"/>
</g>
</svg>