<?xml version="1.0" encoding="utf-8"?>
<!-- Generator: Adobe Illustrator 21.0.0, SVG Export Plug-In . SVG Version: 6.00 Build 0)  -->
<svg version="1.1" id="Layer_1" xmlns="http://www.w3.org/2000/svg" xmlns:xlink="http://www.w3.org/1999/xlink" x="0px" y="0px"
	 viewBox="0 0 512 512" style="enable-background:new 0 0 512 512;" xml:space="preserve">
<style type="text/css">
	.st0{fill:#71CCE0;}
	.st1{fill:#DFDFDF;}
	.st2{fill:#4A555F;}
	.st3{fill:#FFD452;}
	.st4{fill:#F58E6F;}
	.st5{fill:#FFFFFF;}
	.st6{fill:none;}
</style>
<g>
	<g>
		<g>
			<g>
				<path class="st2" d="M89.552,324.284c-21.993,0-39.884,17.892-39.884,39.884c0,21.992,17.891,39.884,39.884,39.885
					c21.993,0,39.884-17.892,39.884-39.884S111.545,324.284,89.552,324.284z M89.552,397.9c-18.6,0-33.731-15.133-33.731-33.732
					s15.131-33.731,33.731-33.731c18.6,0,33.731,15.132,33.731,33.732S108.152,397.9,89.552,397.9z"/>
			</g>
		</g>
	</g>
	<g>
		<g>
			<path class="st3" d="M89.552,338.031c-14.413,0-26.137,11.725-26.137,26.137c0,14.412,11.725,26.137,26.137,26.137
				c14.412,0,26.136-11.725,26.136-26.137C115.688,349.756,103.964,338.031,89.552,338.031z"/>
		</g>
	</g>
	<g>
		<g>
			<path class="st2" d="M115.923,397.9H59.388c-25.979,0-47.114,21.135-47.114,47.114V512h6.152v-66.986
				c0-22.586,18.376-40.961,40.961-40.961h56.535c22.588,0,40.963,18.375,40.963,40.961V512h6.153v-66.986
				C163.039,419.035,141.903,397.9,115.923,397.9z"/>
		</g>
	</g>
	<g>
		<g>
			<path class="st1" d="M115.924,411.647H59.387c-18.398,0-33.366,14.969-33.366,33.367V512h123.27v-66.986
				C149.291,426.615,134.323,411.647,115.924,411.647z"/>
		</g>
	</g>
	<g>
		<g>
			<rect x="34.271" y="469.779" class="st2" width="6.153" height="42.221"/>
		</g>
	</g>
	<g>
		<g>
			<rect x="134.867" y="469.779" class="st2" width="6.153" height="42.221"/>
		</g>
	</g>
	<g>
		<g>
			<g>
				<path class="st2" d="M253.904,324.284c-21.993,0-39.884,17.892-39.884,39.884c0,21.992,17.891,39.884,39.884,39.885
					c21.993,0,39.886-17.892,39.886-39.884S275.897,324.284,253.904,324.284z M253.904,397.9c-18.6,0-33.731-15.133-33.731-33.732
					s15.131-33.731,33.731-33.731c18.6,0,33.733,15.132,33.733,33.732S272.504,397.9,253.904,397.9z"/>
			</g>
		</g>
	</g>
	<g>
		<g>
			<path class="st3" d="M253.905,338.031c-14.413,0-26.137,11.725-26.137,26.137c0,14.412,11.725,26.137,26.137,26.137
				c14.412,0,26.136-11.725,26.136-26.137C280.041,349.756,268.317,338.031,253.905,338.031z"/>
		</g>
	</g>
	<g>
		<g>
			<path class="st2" d="M280.277,397.9H223.74c-25.978,0-47.114,21.135-47.114,47.114V512h6.152v-66.986
				c0-22.586,18.376-40.961,40.961-40.961h56.537c22.586,0,40.961,18.375,40.961,40.961V512h6.153v-66.986
				C327.391,419.035,306.255,397.9,280.277,397.9z"/>
		</g>
	</g>
	<g>
		<g>
			<path class="st1" d="M280.276,411.647h-56.536c-18.398,0-33.368,14.969-33.368,33.367V512h123.27v-66.986
				C313.643,426.615,298.674,411.647,280.276,411.647z"/>
		</g>
	</g>
	<g>
		<g>
			<rect x="198.625" y="469.779" class="st2" width="6.153" height="42.221"/>
		</g>
	</g>
	<g>
		<g>
			<rect x="299.22" y="469.779" class="st2" width="6.152" height="42.221"/>
		</g>
	</g>
	<g>
		<g>
			<g>
				<path class="st2" d="M418.258,324.284c-21.993,0-39.886,17.892-39.886,39.884c0,21.992,17.893,39.884,39.886,39.885
					c21.993,0,39.884-17.892,39.884-39.884S440.251,324.284,418.258,324.284z M418.258,397.9c-18.6,0-33.733-15.133-33.733-33.732
					s15.133-33.731,33.733-33.731s33.731,15.132,33.731,33.732S436.858,397.9,418.258,397.9z"/>
			</g>
		</g>
	</g>
	<g>
		<g>
			<path class="st3" d="M418.258,338.031c-14.413,0-26.139,11.725-26.139,26.137c0,14.412,11.726,26.137,26.139,26.137
				c14.412,0,26.136-11.725,26.136-26.137C444.395,349.756,432.67,338.031,418.258,338.031z"/>
		</g>
	</g>
	<g>
		<g>
			<path class="st2" d="M444.629,397.9h-56.535c-25.98,0-47.116,21.135-47.116,47.114V512h6.153v-66.986
				c0-22.586,18.375-40.961,40.963-40.961h56.535c22.586,0,40.961,18.375,40.961,40.961V512h6.153v-66.986
				C491.743,419.035,470.607,397.9,444.629,397.9z"/>
		</g>
	</g>
	<g>
		<g>
			<path class="st1" d="M444.63,411.647h-56.537c-18.397,0-33.366,14.969-33.366,33.367V512h123.269v-66.986
				C477.996,426.615,463.027,411.647,444.63,411.647z"/>
		</g>
	</g>
	<g>
		<g>
			<rect x="362.977" y="469.779" class="st2" width="6.153" height="42.221"/>
		</g>
	</g>
	<g>
		<g>
			<rect x="463.572" y="469.779" class="st2" width="6.152" height="42.221"/>
		</g>
	</g>
	<g>
		<g>
			<path class="st1" d="M282.443,114.639h-60.87c-25.595,2.973-45.817,23.83-47.704,49.713h156.277
				C328.26,138.469,308.038,117.612,282.443,114.639z"/>
		</g>
	</g>
	<g>
		<g>
			<g>
				<path class="st2" d="M282.368,34.643c-8.018-8.016-18.676-12.43-30.012-12.429c-23.403,0.001-42.443,19.042-42.443,42.445
					c0,11.337,4.414,21.995,12.431,30.011c8.018,8.016,18.674,12.43,30.012,12.429c23.403-0.001,42.443-19.042,42.443-42.445
					C294.799,53.317,290.385,42.659,282.368,34.643z M252.356,100.946c-9.694,0.001-18.809-3.774-25.662-10.628
					c-6.854-6.854-10.629-15.966-10.629-25.66c0-20.01,16.281-36.291,36.291-36.292c9.693-0.001,18.806,3.774,25.662,10.628
					c6.854,6.854,10.629,15.967,10.629,25.66C288.646,84.664,272.366,100.945,252.356,100.946z"/>
			</g>
		</g>
	</g>
	<g>
		<g>
			<path class="st3" d="M272.593,44.069c-5.498-5.498-12.808-8.526-20.584-8.526c-16.054,0.001-29.114,13.062-29.114,29.114
				c0,7.776,3.028,15.087,8.527,20.585c5.498,5.498,12.809,8.526,20.585,8.525c16.053-0.001,29.113-13.061,29.113-29.114
				C281.12,56.878,278.092,49.567,272.593,44.069z"/>
		</g>
	</g>
	<g>
		<g>
			<polygon class="st4" points="239.734,104.022 247.354,122.013 257.496,122.013 264.977,104.022 			"/>
		</g>
	</g>
	<g>
		<g>
			<path class="st4" d="M257.505,122.021h-10.152l-8.081,42.33h25.841C261.586,144.171,257.505,122.021,257.505,122.021z"/>
		</g>
	</g>
	<g>
		<g>
			<g>
				<path class="st2" d="M235.09,100.946l10.228,24.143h14.23l10.04-24.143H235.09z M255.442,118.937h-6.051l-5.013-11.838h15.988
					L255.442,118.937z"/>
			</g>
		</g>
	</g>
	<g>
		<g>
			<g>
				<path class="st2" d="M268.144,163.822c-3.489-19.963-7.573-42.137-7.613-42.358l-0.464-2.519h-15.26l-9.255,48.483h33.223
					L268.144,163.822z M242.991,161.275l6.906-36.178h5.045c1.082,5.901,3.884,21.249,6.509,36.178H242.991z"/>
			</g>
		</g>
	</g>
	<g>
		<g>
			<path class="st2" d="M276.209,100.939h-48.402c-35.56,0-65.123,27.771-67.302,63.224l6.141,0.378
				c1.98-32.214,28.846-57.449,61.162-57.449h48.402c32.315,0,59.181,25.235,61.162,57.449l6.141-0.378
				C341.333,128.71,311.769,100.939,276.209,100.939z"/>
		</g>
	</g>
	<g>
		<g>
			<polygon class="st2" points="142.518,181.778 142.518,301.883 148.671,301.883 148.671,187.931 355.346,187.931 355.346,301.883 
				361.499,301.883 361.499,181.778 			"/>
		</g>
	</g>
	<g>
		<g>
			<rect x="155.849" y="195.109" class="st0" width="192.319" height="106.775"/>
		</g>
	</g>
	<g>
		<g>
			<polygon class="st2" points="170.794,210.248 170.794,301.883 176.946,301.883 176.946,216.401 327.07,216.401 327.07,301.883 
				333.223,301.883 333.223,210.248 			"/>
		</g>
	</g>
	<g>
		<g>
			<g>
				<path class="st2" d="M107.397,161.272v26.658h289.225v-26.658H107.397z M390.469,181.778H113.55v-14.353h276.919V181.778z"/>
			</g>
		</g>
	</g>
	<g>
		<g>
			<g>
				<path class="st2" d="M484.739,0H379.933c-13.557,0-24.586,11.029-24.586,24.585v47.584l-21.708,24.676h151.102
					c13.557,0,24.586-11.029,24.586-24.585V24.585C509.326,11.029,498.296,0,484.739,0z M503.173,72.259
					c0,10.164-8.27,18.433-18.434,18.433H347.245l14.362-16.324l-0.086-1.67c-0.01-0.146-0.022-0.291-0.022-0.439V24.585
					c0-10.164,8.27-18.433,18.434-18.433h104.807c10.164,0,18.434,8.269,18.434,18.433V72.259z"/>
			</g>
		</g>
	</g>
	<g>
		<g>
			<path class="st3" d="M484.739,13.331H379.933c-6.205,0-11.254,5.049-11.254,11.255l0.006,47.657l0.23,4.686l-5.794,6.586h121.618
				c6.207,0,11.256-5.049,11.256-11.255V24.585C495.995,18.38,490.946,13.331,484.739,13.331z"/>
		</g>
	</g>
	<g>
		<g>
			<rect x="398.879" y="45.346" class="st2" width="17.482" height="6.153"/>
		</g>
	</g>
	<g>
		<g>
			<rect x="426.618" y="45.346" class="st2" width="17.482" height="6.153"/>
		</g>
	</g>
	<g>
		<g>
			<rect x="454.357" y="45.346" class="st2" width="17.482" height="6.153"/>
		</g>
	</g>
	<g>
		<g>
			<g>
				<path class="st2" d="M145.224,67.064c0.655-3.145,0.986-6.344,0.986-9.541C146.209,25.805,114.014,0,74.441,0
					C34.869,0,2.674,25.805,2.674,57.524c0,31.718,32.195,57.523,71.767,57.523c18.458,0,35.812-5.528,49.168-15.613
					c3.271,2.312,7.164,3.562,11.206,3.562c10.741,0,19.481-8.74,19.481-19.482C154.296,76.818,150.806,70.605,145.224,67.064z
					 M134.815,96.844c-3.369,0-6.593-1.276-9.079-3.592l-1.959-1.828l-2.081,1.692c-12.501,10.175-29.285,15.779-47.256,15.779
					c-36.179,0-65.614-23.045-65.614-51.371c0-28.326,29.435-51.371,65.614-51.371c36.181,0,65.616,23.045,65.616,51.371
					c0,3.471-0.449,6.948-1.336,10.333l-0.651,2.488l2.333,1.082c4.702,2.18,7.741,6.924,7.741,12.087
					C148.144,90.864,142.166,96.844,134.815,96.844z"/>
			</g>
		</g>
	</g>
	<g>
		<g>
			<path class="st0" d="M137.386,77.941l-7.783-3.605l2.173-8.297c0.731-2.792,1.102-5.658,1.102-8.515
				c0-24.368-26.215-44.193-58.436-44.193c-32.223,0-58.438,19.825-58.438,44.193s26.215,44.193,58.438,44.193
				c16.325,0,31.5-5.031,42.726-14.168l6.934-5.641l6.535,6.097c0.811,0.758,2.197,1.661,4.178,1.661
				c3.393,0,6.152-2.759,6.152-6.152C140.967,81.136,139.561,78.949,137.386,77.941z"/>
		</g>
	</g>
	<g>
		<g>
			<g>
				<path class="st2" d="M177.649,68.131c-7.351,0-13.329,5.98-13.329,13.331c0,7.35,5.978,13.33,13.329,13.33
					c7.35,0,13.331-5.98,13.331-13.33C190.98,74.111,185,68.131,177.649,68.131z M177.649,88.639c-3.958,0-7.176-3.22-7.176-7.178
					c0-3.958,3.219-7.178,7.176-7.178s7.178,3.22,7.178,7.178C184.827,85.419,181.607,88.639,177.649,88.639z"/>
			</g>
		</g>
	</g>
	<g>
		<g>
			<rect x="39.474" y="55.993" class="st2" width="17.48" height="6.153"/>
		</g>
	</g>
	<g>
		<g>
			<rect x="67.21" y="55.993" class="st2" width="17.483" height="6.153"/>
		</g>
	</g>
	<g>
		<g>
			<rect x="94.95" y="55.993" class="st2" width="17.482" height="6.153"/>
		</g>
	</g>
</g>
</svg>
