<svg xmlns="http://www.w3.org/2000/svg" viewBox="0 0 48 48" id="history">
  <path fill="#f6ccaf" d="M37,22.51a44.71,44.71,0,0,0-5.32,7.87A34.12,34.12,0,0,1,37,28.5V41H7V7H37Z"></path>
  <path fill="#ffdec7" d="M37,22.51a44.71,44.71,0,0,0-5.32,7.87A34.12,34.12,0,0,1,37,28.5C37,39.6,36.9,39,37,39A27,27,0,0,1,10,12V7H37Z"></path>
  <rect width="34" height="4" x="5" y="3" fill="#7c7d7d"></rect>
  <path fill="#919191" d="M39,3V5H9A2,2,0,0,1,7,3Z"></path>
  <rect width="34" height="4" x="5" y="41" fill="#7c7d7d"></rect>
  <path fill="#919191" d="M39,41v2H9a2,2,0,0,1-2-2Z"></path>
  <path fill="#fc6" d="M43,3c0,4.2.07,4.31-.18,4.82A2,2,0,0,1,39,7V3a2,2,0,0,1,4,0Z"></path>
  <path fill="#ffde76" d="M43,3c0,4.2.07,4.31-.18,4.82A2,2,0,0,1,40,6c0-4.2-.07-4.31.18-4.82A2,2,0,0,1,43,3Z"></path>
  <path fill="#fc6" d="M5,3c0,4.2.07,4.31-.18,4.82A2,2,0,0,1,1,7V3A2,2,0,0,1,5,3Z"></path>
  <path fill="#ffde76" d="M5,3c0,4.2.07,4.31-.18,4.82A2,2,0,0,1,2,6c0-4.2-.07-4.31.18-4.82A2,2,0,0,1,5,3Z"></path>
  <path fill="#fc6" d="M43,41c0,4.2.07,4.31-.18,4.82A2,2,0,0,1,39,45V41a2,2,0,0,1,4,0Z"></path>
  <path fill="#ffde76" d="M43,41c0,4.2.07,4.31-.18,4.82A2,2,0,0,1,40,44c0-4.2-.07-4.31.18-4.82A2,2,0,0,1,43,41Z"></path>
  <path fill="#fc6" d="M5,41c0,4.2.07,4.31-.18,4.82A2,2,0,0,1,1,45V41a2,2,0,0,1,4,0Z"></path>
  <path fill="#ffde76" d="M5,41c0,4.2.07,4.31-.18,4.82A2,2,0,0,1,2,44c0-4.2-.07-4.31.18-4.82A2,2,0,0,1,5,41Z"></path>
  <path fill="#dad7e5" d="M44,20s2,2-4,5c3.57,2.68-5.59,3.76-8.32,5.38.33-.63.68-1.25,1-1.85h0C36.44,22.24,42.87,16,46,14a4.38,4.38,0,0,1,1,3C47,19,44,20,44,20Z"></path>
  <path fill="#edebf2" d="M43,19s2,2-4,5c2.91,2.19-2.65,3.31-6.28,4.53a51.52,51.52,0,0,1,13-14.31A5.15,5.15,0,0,1,46,16C46,18,43,19,43,19Z"></path>
  <path d="M48,17c0-1.83-1.14-4.81-2.57-3.82A49.67,49.67,0,0,0,38,19.85C38,6.68,37.92,8,38.18,8A3,3,0,0,0,44,7V3a3,3,0,0,0-5.82-1H5.82A3,3,0,0,0,0,3V7A3,3,0,0,0,5.82,8C6.1,8,6,5.53,6,40H5.82A3,3,0,0,0,0,41v4a3,3,0,0,0,5.82,1H38.18A3,3,0,0,0,44,45V41a3,3,0,0,0-5.82-1c-.26,0-.18,1.2-.18-10.78,2.15-.74,4.65-1.93,3.59-3.94,1.81-1,4-2.69,3.7-4.75C46.39,20,48,18.84,48,17ZM42,3V7a1,1,0,0,1-2,0V3A1,1,0,0,1,42,3ZM38,6H6V4H38ZM2,7V3A1,1,0,0,1,4,3V7A1,1,0,0,1,2,7ZM2,45V41a1,1,0,0,1,2,0v4A1,1,0,0,1,2,45Zm4-3H38v2H6Zm36-1v4a1,1,0,0,1-2,0V41A1,1,0,0,1,42,41Zm-6-1H8V8H36V22.15a40.77,40.77,0,0,0-8,14.58A1,1,0,0,0,29,38c1.37,0,.59-1.36,3.42-6.89A26.9,26.9,0,0,1,36,29.86Zm7.68-20.95a1,1,0,0,0-.42,1.62.46.46,0,0,1,0,.38c-.09.4-.64,1.5-3.75,3.06a1,1,0,0,0-.15,1.69,1.65,1.65,0,0,1,.38.36c-.57.73-4.41,1.79-5.81,2.23A51.83,51.83,0,0,1,45.72,15.45,4.17,4.17,0,0,1,46,17C46,18,44.28,18.85,43.68,19.05Z"></path>
  <path d="M14 14H12V12a1 1 0 0 0-2 0v3a1 1 0 0 0 1 1h3A1 1 0 0 0 14 14zM20 15V12a1 1 0 0 0-2 0v3A1 1 0 0 0 20 15zM30 13h3a1 1 0 0 0 0-2H30A1 1 0 0 0 30 13zM33 14H31a1 1 0 0 0 0 2h2A1 1 0 0 0 33 14zM21 19H18a1 1 0 0 0-1 1v3a1 1 0 0 0 2 0V21h2A1 1 0 0 0 21 19zM24 20v3a1 1 0 0 0 2 0V20A1 1 0 0 0 24 20zM33 19H31a1 1 0 0 0-1 1v3a1 1 0 0 0 2 0V21h1A1 1 0 0 0 33 19zM14 19H11a1 1 0 0 0 0 2h3A1 1 0 0 0 14 19zM11 24h2a1 1 0 0 0 0-2H11A1 1 0 0 0 11 24zM25 15h1a1 1 0 0 0 1-1V12a1 1 0 0 0-2 0v1H23a1 1 0 0 0 0 2A1 1 0 0 0 25 15zM27 30H26V28a1 1 0 0 0-2 0v3a1 1 0 0 0 1 1h2A1 1 0 0 0 27 30zM20 28v3a1 1 0 0 0 2 0V28A1 1 0 0 0 20 28zM17 29v2a1 1 0 0 0 2 0V29A1 1 0 0 0 17 29zM13 28v2H12V28a1 1 0 0 0-2 0v3a1 1 0 0 0 1 1h3a1 1 0 0 0 1-1V28A1 1 0 0 0 13 28z"></path>
</svg>
